<mxfile host="app.diagrams.net" modified="2024-01-11T08:25:06.274Z" agent="Mozilla/5.0 (Windows NT 10.0; Win64; x64) AppleWebKit/537.36 (KHTML, like Gecko) Chrome/120.0.0.0 Safari/537.36 Edg/120.0.0.0" etag="e_GAexEUwgXk1fpzGga4" version="22.1.18" type="github">
  <diagram id="prtHgNgQTEPvFCAcTncT" name="Page-1">
    <mxGraphModel dx="1407" dy="720" grid="1" gridSize="10" guides="1" tooltips="1" connect="1" arrows="1" fold="1" page="1" pageScale="1" pageWidth="827" pageHeight="1169" math="0" shadow="0">
      <root>
        <mxCell id="0" />
        <mxCell id="1" parent="0" />
        <mxCell id="9iD67m8QF2bOODrJweK9-1" value="信息管理" style="swimlane;childLayout=stackLayout;resizeParent=1;resizeParentMax=0;startSize=20;html=1;" parent="1" vertex="1">
          <mxGeometry x="170.00000000000045" y="80" width="570" height="780" as="geometry" />
        </mxCell>
        <mxCell id="9iD67m8QF2bOODrJweK9-2" value="用户" style="swimlane;startSize=20;html=1;" parent="9iD67m8QF2bOODrJweK9-1" vertex="1">
          <mxGeometry y="20" width="290" height="760" as="geometry" />
        </mxCell>
        <mxCell id="9ohyAPjFLNHrpa-9DuHJ-6" style="edgeStyle=orthogonalEdgeStyle;rounded=0;orthogonalLoop=1;jettySize=auto;html=1;exitX=0.5;exitY=1;exitDx=0;exitDy=0;entryX=0.5;entryY=0;entryDx=0;entryDy=0;" edge="1" parent="9iD67m8QF2bOODrJweK9-2" source="9ohyAPjFLNHrpa-9DuHJ-1" target="9ohyAPjFLNHrpa-9DuHJ-3">
          <mxGeometry relative="1" as="geometry" />
        </mxCell>
        <mxCell id="9ohyAPjFLNHrpa-9DuHJ-1" value="" style="ellipse;html=1;shape=startState;fillColor=#000000;strokeColor=#ff0000;" vertex="1" parent="9iD67m8QF2bOODrJweK9-2">
          <mxGeometry x="129.99999999999955" y="40" width="30" height="30" as="geometry" />
        </mxCell>
        <mxCell id="9ohyAPjFLNHrpa-9DuHJ-3" value="进入个人信息编辑页面" style="rounded=1;whiteSpace=wrap;html=1;shadow=0;comic=0;labelBackgroundColor=none;strokeWidth=1;fontFamily=Verdana;fontSize=12;align=center;arcSize=50;" vertex="1" parent="9iD67m8QF2bOODrJweK9-2">
          <mxGeometry x="102.49999999999955" y="100" width="85" height="30" as="geometry" />
        </mxCell>
        <mxCell id="9iD67m8QF2bOODrJweK9-3" value="账号管理子系统" style="swimlane;startSize=20;html=1;" parent="9iD67m8QF2bOODrJweK9-1" vertex="1">
          <mxGeometry x="290" y="20" width="280" height="760" as="geometry" />
        </mxCell>
      </root>
    </mxGraphModel>
  </diagram>
</mxfile>
